<svg xmlns="http://www.w3.org/2000/svg" width="1280" height="520" viewBox="0 0 1280 520">
<rect width="1280" height="520" fill="#ffffff"/>
<style>
  text { font-family: Arial, Helvetica, sans-serif; fill: #1f2933; }
  .title { font-size: 28px; font-weight: 700; }
  .subtitle { font-size: 15px; fill: #64748b; }
  .label { font-size: 14px; }
  .small { font-size: 12px; fill: #64748b; }
  .axis { stroke: #d7dee8; stroke-width: 1; }
</style>
<text x="40.0" y="48.0" class="title" text-anchor="start">Category success and tool-call cost</text>
<text x="40.0" y="76.0" class="subtitle" text-anchor="start">Success is task-category dependent; rename is tool-heavy despite perfect success.</text>
<rect x="170" y="120.0" width="52" height="250.0" fill="#4f9d69" rx="4"/>
<rect x="236" y="295.4" width="52" height="74.6" fill="#7b5ea7" rx="4"/>
<text x="196.0" y="400.0" class="small" text-anchor="middle">100%</text>
<text x="262.0" y="400.0" class="small" text-anchor="middle">4.7</text>
<text x="228.0" y="440.0" class="label" text-anchor="middle">add logging</text>
<rect x="360" y="133.9" width="52" height="236.1" fill="#4f9d69" rx="4"/>
<rect x="426" y="261.2" width="52" height="108.8" fill="#7b5ea7" rx="4"/>
<text x="386.0" y="400.0" class="small" text-anchor="middle">94%</text>
<text x="452.0" y="400.0" class="small" text-anchor="middle">6.8</text>
<text x="418.0" y="440.0" class="label" text-anchor="middle">add tests</text>
<rect x="550" y="272.8" width="52" height="97.2" fill="#4f9d69" rx="4"/>
<rect x="616" y="200.2" width="52" height="169.8" fill="#7b5ea7" rx="4"/>
<text x="576.0" y="400.0" class="small" text-anchor="middle">39%</text>
<text x="642.0" y="400.0" class="small" text-anchor="middle">10.6</text>
<text x="608.0" y="440.0" class="label" text-anchor="middle">benchmark</text>
<rect x="740" y="179.0" width="52" height="191.0" fill="#4f9d69" rx="4"/>
<rect x="806" y="272.8" width="52" height="97.2" fill="#7b5ea7" rx="4"/>
<text x="766.0" y="400.0" class="small" text-anchor="middle">76%</text>
<text x="832.0" y="400.0" class="small" text-anchor="middle">6.1</text>
<text x="798.0" y="440.0" class="label" text-anchor="middle">bug fix</text>
<rect x="930" y="120.0" width="52" height="250.0" fill="#4f9d69" rx="4"/>
<rect x="996" y="120.0" width="52" height="250.0" fill="#7b5ea7" rx="4"/>
<text x="956.0" y="400.0" class="small" text-anchor="middle">100%</text>
<text x="1022.0" y="400.0" class="small" text-anchor="middle">15.6</text>
<text x="988.0" y="440.0" class="label" text-anchor="middle">rename</text>
<rect x="930" y="112" width="18" height="18" fill="#4f9d69"/>
<text x="956.0" y="126.0" class="label" text-anchor="start">success rate</text>
<rect x="930" y="144" width="18" height="18" fill="#7b5ea7"/>
<text x="956.0" y="158.0" class="label" text-anchor="start">mean tool calls (scaled)</text>
</svg>
