<svg xmlns="http://www.w3.org/2000/svg" width="1500" height="560" viewBox="0 0 1500 560">
<rect width="1500" height="560" fill="#ffffff"/>
<style>
  text { font-family: Arial, Helvetica, sans-serif; fill: #1f2933; }
  .title { font-size: 28px; font-weight: 700; }
  .subtitle { font-size: 15px; fill: #64748b; }
  .label { font-size: 14px; }
  .small { font-size: 12px; fill: #64748b; }
  .axis { stroke: #d7dee8; stroke-width: 1; }
</style>
<text x="40.0" y="48.0" class="title" text-anchor="start">Environment locks and replay evidence</text>
<text x="40.0" y="76.0" class="subtitle" text-anchor="start">Version, model snapshot, effort route, and raw/private references are recorded per config.</text>
<rect x="34" y="84" width="1410" height="34" fill="#1f2933" rx="6"/>
<text x="50" y="106" class="small" fill="#ffffff">Config</text>
<text x="145" y="106" class="small" fill="#ffffff">Harness</text>
<text x="285" y="106" class="small" fill="#ffffff">Model</text>
<text x="535" y="106" class="small" fill="#ffffff">Version</text>
<text x="710" y="106" class="small" fill="#ffffff">Effort/budget source</text>
<text x="1085" y="106" class="small" fill="#ffffff">Raw/private refs</text>
<text x="1280" y="106" class="small" fill="#ffffff">n</text>
<rect x="34" y="102" width="1410" height="58" fill="#f7f9fc" stroke="#d7dee8"/>
<text x="50.0" y="122.0" class="small" text-anchor="start">c1</text>
<text x="145.0" y="122.0" class="small" text-anchor="start">claude_code</text>
<text x="285.0" y="122.0" class="small" text-anchor="start">haiku</text>
<text x="535.0" y="122.0" class="small" text-anchor="start">2.1.88</text>
<text x="710.0" y="122.0" class="small" text-anchor="start">cli --effort high + env budgets</text>
<text x="1085.0" y="122.0" class="small" text-anchor="start">raw 60; private 60</text>
<text x="1280.0" y="122.0" class="small" text-anchor="start">60</text>
<rect x="34" y="168" width="1410" height="58" fill="#ffffff" stroke="#d7dee8"/>
<text x="50.0" y="188.0" class="small" text-anchor="start">c2</text>
<text x="145.0" y="188.0" class="small" text-anchor="start">opencode</text>
<text x="285.0" y="188.0" class="small" text-anchor="start">haiku</text>
<text x="535.0" y="188.0" class="small" text-anchor="start">1.15.13</text>
<text x="710.0" y="188.0" class="small" text-anchor="start">opencode run --variant high</text>
<text x="1085.0" y="188.0" class="small" text-anchor="start">raw 60; private 60</text>
<text x="1280.0" y="188.0" class="small" text-anchor="start">60</text>
<rect x="34" y="234" width="1410" height="58" fill="#f7f9fc" stroke="#d7dee8"/>
<text x="50.0" y="254.0" class="small" text-anchor="start">c3</text>
<text x="145.0" y="254.0" class="small" text-anchor="start">hermes</text>
<text x="285.0" y="254.0" class="small" text-anchor="start">haiku</text>
<text x="535.0" y="254.0" class="small" text-anchor="start">0.13.0</text>
<text x="710.0" y="254.0" class="small" text-anchor="start">hermes -z -m MODEL --provider PROVIDER</text>
<text x="710.0" y="269.0" class="small" text-anchor="start">--yolo; no explicit effort flag</text>
<text x="1085.0" y="254.0" class="small" text-anchor="start">raw 60; private 60</text>
<text x="1280.0" y="254.0" class="small" text-anchor="start">60</text>
<rect x="34" y="300" width="1410" height="58" fill="#ffffff" stroke="#d7dee8"/>
<text x="50.0" y="320.0" class="small" text-anchor="start">c4</text>
<text x="145.0" y="320.0" class="small" text-anchor="start">opencode</text>
<text x="285.0" y="320.0" class="small" text-anchor="start">gptmini</text>
<text x="535.0" y="320.0" class="small" text-anchor="start">1.15.13</text>
<text x="710.0" y="320.0" class="small" text-anchor="start">opencode run --variant high</text>
<text x="1085.0" y="320.0" class="small" text-anchor="start">raw 60; private 60</text>
<text x="1280.0" y="320.0" class="small" text-anchor="start">60</text>
<rect x="34" y="366" width="1410" height="58" fill="#f7f9fc" stroke="#d7dee8"/>
<text x="50.0" y="386.0" class="small" text-anchor="start">c5</text>
<text x="145.0" y="386.0" class="small" text-anchor="start">hermes</text>
<text x="285.0" y="386.0" class="small" text-anchor="start">gptmini</text>
<text x="535.0" y="386.0" class="small" text-anchor="start">0.13.0</text>
<text x="710.0" y="386.0" class="small" text-anchor="start">hermes -z -m MODEL --provider PROVIDER</text>
<text x="710.0" y="401.0" class="small" text-anchor="start">--yolo; no explicit effort flag</text>
<text x="1085.0" y="386.0" class="small" text-anchor="start">raw 60; private 60</text>
<text x="1280.0" y="386.0" class="small" text-anchor="start">60</text>
<rect x="34" y="432" width="1410" height="58" fill="#ffffff" stroke="#d7dee8"/>
<text x="50.0" y="452.0" class="small" text-anchor="start">c6</text>
<text x="145.0" y="452.0" class="small" text-anchor="start">codex</text>
<text x="285.0" y="452.0" class="small" text-anchor="start">gptmini</text>
<text x="535.0" y="452.0" class="small" text-anchor="start">0.136.0</text>
<text x="710.0" y="452.0" class="small" text-anchor="start">$LAB_HOME/.codex/config.toml</text>
<text x="710.0" y="467.0" class="small" text-anchor="start">reasoning_effort=high</text>
<text x="1085.0" y="452.0" class="small" text-anchor="start">raw 60; private 60</text>
<text x="1280.0" y="452.0" class="small" text-anchor="start">60</text>
</svg>
