<?xml version="1.0" encoding="utf-8" standalone="no"?>
<!DOCTYPE svg PUBLIC "-//W3C//DTD SVG 1.1//EN"
  "http://www.w3.org/Graphics/SVG/1.1/DTD/svg11.dtd">
<svg xmlns:xlink="http://www.w3.org/1999/xlink" width="538.92pt" height="180.72pt" viewBox="0 0 538.92 180.72" xmlns="http://www.w3.org/2000/svg" version="1.1">
 <metadata>
  <rdf:RDF xmlns:dc="http://purl.org/dc/elements/1.1/" xmlns:cc="http://creativecommons.org/ns#" xmlns:rdf="http://www.w3.org/1999/02/22-rdf-syntax-ns#">
   <cc:Work>
    <dc:type rdf:resource="http://purl.org/dc/dcmitype/StillImage"/>
    <dc:format>image/svg+xml</dc:format>
    <dc:creator>
     <cc:Agent>
      <dc:title>Matplotlib v3.10.8, https://matplotlib.org/</dc:title>
     </cc:Agent>
    </dc:creator>
   </cc:Work>
  </rdf:RDF>
 </metadata>
 <defs>
  <style type="text/css">*{stroke-linejoin: round; stroke-linecap: butt}</style>
 </defs>
 <g id="figure_1">
  <g id="patch_1">
   <path d="M 0 180.72
L 538.92 180.72
L 538.92 0
L 0 0
z
" style="fill: #ffffff"/>
  </g>
  <g id="axes_1">
   <g id="patch_2">
    <path d="M 21.88656 144.58032
L 131.51124 144.58032
Q 142.00164 144.58032 142.00164 142.91712
L 142.00164 61.08768
Q 142.00164 59.42448 131.51124 59.42448
L 21.88656 59.42448
Q 11.39616 59.42448 11.39616 61.08768
L 11.39616 142.91712
Q 11.39616 144.58032 21.88656 144.58032
z
" clip-path="url(#p34d83fec62)" style="fill: #eef2f7; stroke: #c4d0de; stroke-linejoin: miter"/>
   </g>
   <g id="patch_3">
    <path d="M 150.39396 144.58032
L 260.01864 144.58032
Q 270.50904 144.58032 270.50904 142.91712
L 270.50904 61.08768
Q 270.50904 59.42448 260.01864 59.42448
L 150.39396 59.42448
Q 139.90356 59.42448 139.90356 61.08768
L 139.90356 142.91712
Q 139.90356 144.58032 150.39396 144.58032
z
" clip-path="url(#p34d83fec62)" style="fill: #eef2f7; stroke: #c4d0de; stroke-linejoin: miter"/>
   </g>
   <g id="patch_4">
    <path d="M 278.90136 144.58032
L 388.52604 144.58032
Q 399.01644 144.58032 399.01644 142.91712
L 399.01644 61.08768
Q 399.01644 59.42448 388.52604 59.42448
L 278.90136 59.42448
Q 268.41096 59.42448 268.41096 61.08768
L 268.41096 142.91712
Q 268.41096 144.58032 278.90136 144.58032
z
" clip-path="url(#p34d83fec62)" style="fill: #eef2f7; stroke: #c4d0de; stroke-linejoin: miter"/>
   </g>
   <g id="patch_5">
    <path d="M 407.40876 144.58032
L 517.03344 144.58032
Q 527.52384 144.58032 527.52384 142.91712
L 527.52384 61.08768
Q 527.52384 59.42448 517.03344 59.42448
L 407.40876 59.42448
Q 396.91836 59.42448 396.91836 61.08768
L 396.91836 142.91712
Q 396.91836 144.58032 407.40876 144.58032
z
" clip-path="url(#p34d83fec62)" style="fill: #eef2f7; stroke: #c4d0de; stroke-linejoin: miter"/>
   </g>
   <g id="text_1">
    <text style="font-weight: 700; font-size: 13px; font-family: 'Helvetica', 'Arial', 'DejaVu Sans', sans-serif; text-anchor: start; fill: #1a1a1a" x="7.2" y="18.8424" transform="rotate(-0 7.2 18.8424)">M1–M4 attribution evidence ladder</text>
   </g>
   <g id="text_2">
    <text style="font-size: 9.5px; font-family: 'Helvetica', 'Arial', 'DejaVu Sans', sans-serif; text-anchor: start; fill: #5a6573" x="7.2" y="35.4744" transform="rotate(-0 7.2 35.4744)">Each method answers a different boundary; hidden chain-of-thought omitted.</text>
   </g>
   <g id="text_3">
    <text style="font-weight: 700; font-size: 14px; font-family: 'Helvetica', 'Arial', 'DejaVu Sans', sans-serif; text-anchor: start; fill: #36618e" x="28.1808" y="82.044" transform="rotate(-0 28.1808 82.044)">M1</text>
   </g>
   <g id="text_4">
    <text style="font-size: 10px; font-family: 'Helvetica', 'Arial', 'DejaVu Sans', sans-serif; text-anchor: start; fill: #1a1a1a" x="28.1808" y="102.0024" transform="rotate(-0 28.1808 102.0024)">System prompt</text>
   </g>
   <g id="text_5">
    <text style="font-size: 8.2px; font-family: 'Helvetica', 'Arial', 'DejaVu Sans', sans-serif; text-anchor: start; fill: #5a6573" x="28.1808" y="120.2976" transform="rotate(-0 28.1808 120.2976)">source / dossier</text>
   </g>
   <g id="text_6">
    <text style="font-weight: 700; font-size: 14px; font-family: 'Helvetica', 'Arial', 'DejaVu Sans', sans-serif; text-anchor: start; fill: #36618e" x="156.6882" y="82.044" transform="rotate(-0 156.6882 82.044)">M2</text>
   </g>
   <g id="text_7">
    <text style="font-size: 10px; font-family: 'Helvetica', 'Arial', 'DejaVu Sans', sans-serif; text-anchor: start; fill: #1a1a1a" x="156.6882" y="102.0024" transform="rotate(-0 156.6882 102.0024)">Tool affordance</text>
   </g>
   <g id="text_8">
    <text style="font-size: 8.2px; font-family: 'Helvetica', 'Arial', 'DejaVu Sans', sans-serif; text-anchor: start; fill: #5a6573" x="156.6882" y="120.2976" transform="rotate(-0 156.6882 120.2976)">source / tool surface</text>
   </g>
   <g id="text_9">
    <text style="font-weight: 700; font-size: 14px; font-family: 'Helvetica', 'Arial', 'DejaVu Sans', sans-serif; text-anchor: start; fill: #36618e" x="285.1956" y="82.044" transform="rotate(-0 285.1956 82.044)">M3</text>
   </g>
   <g id="text_10">
    <text style="font-size: 10px; font-family: 'Helvetica', 'Arial', 'DejaVu Sans', sans-serif; text-anchor: start; fill: #1a1a1a" x="285.1956" y="102.0024" transform="rotate(-0 285.1956 102.0024)">Behavioral counterfactual</text>
   </g>
   <g id="text_11">
    <text style="font-size: 8.2px; font-family: 'Helvetica', 'Arial', 'DejaVu Sans', sans-serif; text-anchor: start; fill: #5a6573" x="285.1956" y="120.2976" transform="rotate(-0 285.1956 120.2976)">executed repeats 301–312</text>
   </g>
   <g id="text_12">
    <text style="font-size: 8.2px; font-family: 'Helvetica', 'Arial', 'DejaVu Sans', sans-serif; text-anchor: start; fill: #5a6573" x="285.1956" y="134.4348" transform="rotate(-0 285.1956 134.4348)">/ 401–404</text>
   </g>
   <g id="text_13">
    <text style="font-weight: 700; font-size: 14px; font-family: 'Helvetica', 'Arial', 'DejaVu Sans', sans-serif; text-anchor: start; fill: #36618e" x="413.703" y="82.044" transform="rotate(-0 413.703 82.044)">M4</text>
   </g>
   <g id="text_14">
    <text style="font-size: 10px; font-family: 'Helvetica', 'Arial', 'DejaVu Sans', sans-serif; text-anchor: start; fill: #1a1a1a" x="413.703" y="102.0024" transform="rotate(-0 413.703 102.0024)">Planning-loop trace</text>
   </g>
   <g id="text_15">
    <text style="font-size: 8.2px; font-family: 'Helvetica', 'Arial', 'DejaVu Sans', sans-serif; text-anchor: start; fill: #5a6573" x="413.703" y="120.2976" transform="rotate(-0 413.703 120.2976)">public trace + private</text>
   </g>
   <g id="text_16">
    <text style="font-size: 8.2px; font-family: 'Helvetica', 'Arial', 'DejaVu Sans', sans-serif; text-anchor: start; fill: #5a6573" x="413.703" y="134.4348" transform="rotate(-0 413.703 134.4348)">replay</text>
   </g>
  </g>
 </g>
 <defs>
  <clipPath id="p34d83fec62">
   <rect x="7.2" y="7.2" width="524.52" height="166.32"/>
  </clipPath>
 </defs>
</svg>
