<?xml version="1.0" encoding="utf-8" standalone="no"?>
<!DOCTYPE svg PUBLIC "-//W3C//DTD SVG 1.1//EN"
  "http://www.w3.org/Graphics/SVG/1.1/DTD/svg11.dtd">
<svg xmlns:xlink="http://www.w3.org/1999/xlink" width="550.08pt" height="158.544pt" viewBox="0 0 550.08 158.544" xmlns="http://www.w3.org/2000/svg" version="1.1">
 <metadata>
  <rdf:RDF xmlns:dc="http://purl.org/dc/elements/1.1/" xmlns:cc="http://creativecommons.org/ns#" xmlns:rdf="http://www.w3.org/1999/02/22-rdf-syntax-ns#">
   <cc:Work>
    <dc:type rdf:resource="http://purl.org/dc/dcmitype/StillImage"/>
    <dc:format>image/svg+xml</dc:format>
    <dc:creator>
     <cc:Agent>
      <dc:title>Matplotlib v3.10.9, https://matplotlib.org/</dc:title>
     </cc:Agent>
    </dc:creator>
   </cc:Work>
  </rdf:RDF>
 </metadata>
 <defs>
  <style type="text/css">*{stroke-linejoin: round; stroke-linecap: butt}</style>
 </defs>
 <g id="figure_1">
  <g id="patch_1">
   <path d="M 0 158.544 
L 550.08 158.544 
L 550.08 0 
L 0 0 
z
" style="fill: #ffffff"/>
  </g>
  <g id="axes_1">
   <g id="patch_2">
    <path d="M 22.19904 114.731424 
L 102.01536 114.731424 
Q 112.72896 114.731424 112.72896 113.289984 
L 112.72896 53.902656 
Q 112.72896 52.461216 102.01536 52.461216 
L 22.19904 52.461216 
Q 11.48544 52.461216 11.48544 53.902656 
L 11.48544 113.289984 
Q 11.48544 114.731424 22.19904 114.731424 
z
" clip-path="url(#pc8e80f72fa)" style="fill: #eef2f7; stroke: #c4d0de; stroke-linejoin: miter"/>
   </g>
   <g id="patch_3">
    <path d="M 110.442904 83.59632 
Q 114.870763 83.59632 117.733375 83.59632 
" clip-path="url(#pc8e80f72fa)" style="fill: none; stroke: #8794a3; stroke-width: 1.4; stroke-linecap: round"/>
    <path d="M 112.933375 81.19632 
L 117.733375 83.59632 
L 112.933375 85.99632 
z
" clip-path="url(#pc8e80f72fa)" style="fill: #8794a3; stroke: #8794a3; stroke-width: 1.4; stroke-linecap: round"/>
   </g>
   <g id="patch_4">
    <path d="M 127.728 114.731424 
L 207.54432 114.731424 
Q 218.25792 114.731424 218.25792 113.289984 
L 218.25792 53.902656 
Q 218.25792 52.461216 207.54432 52.461216 
L 127.728 52.461216 
Q 117.0144 52.461216 117.0144 53.902656 
L 117.0144 113.289984 
Q 117.0144 114.731424 127.728 114.731424 
z
" clip-path="url(#pc8e80f72fa)" style="fill: #eef2f7; stroke: #c4d0de; stroke-linejoin: miter"/>
   </g>
   <g id="patch_5">
    <path d="M 215.971864 83.59632 
Q 220.399723 83.59632 223.262335 83.59632 
" clip-path="url(#pc8e80f72fa)" style="fill: none; stroke: #8794a3; stroke-width: 1.4; stroke-linecap: round"/>
    <path d="M 218.462335 81.19632 
L 223.262335 83.59632 
L 218.462335 85.99632 
z
" clip-path="url(#pc8e80f72fa)" style="fill: #8794a3; stroke: #8794a3; stroke-width: 1.4; stroke-linecap: round"/>
   </g>
   <g id="patch_6">
    <path d="M 233.25696 114.731424 
L 313.07328 114.731424 
Q 323.78688 114.731424 323.78688 113.289984 
L 323.78688 53.902656 
Q 323.78688 52.461216 313.07328 52.461216 
L 233.25696 52.461216 
Q 222.54336 52.461216 222.54336 53.902656 
L 222.54336 113.289984 
Q 222.54336 114.731424 233.25696 114.731424 
z
" clip-path="url(#pc8e80f72fa)" style="fill: #eef2f7; stroke: #c4d0de; stroke-linejoin: miter"/>
   </g>
   <g id="patch_7">
    <path d="M 321.500824 83.59632 
Q 325.928683 83.59632 328.791295 83.59632 
" clip-path="url(#pc8e80f72fa)" style="fill: none; stroke: #8794a3; stroke-width: 1.4; stroke-linecap: round"/>
    <path d="M 323.991295 81.19632 
L 328.791295 83.59632 
L 323.991295 85.99632 
z
" clip-path="url(#pc8e80f72fa)" style="fill: #8794a3; stroke: #8794a3; stroke-width: 1.4; stroke-linecap: round"/>
   </g>
   <g id="patch_8">
    <path d="M 338.78592 114.731424 
L 418.60224 114.731424 
Q 429.31584 114.731424 429.31584 113.289984 
L 429.31584 53.902656 
Q 429.31584 52.461216 418.60224 52.461216 
L 338.78592 52.461216 
Q 328.07232 52.461216 328.07232 53.902656 
L 328.07232 113.289984 
Q 328.07232 114.731424 338.78592 114.731424 
z
" clip-path="url(#pc8e80f72fa)" style="fill: #eef2f7; stroke: #c4d0de; stroke-linejoin: miter"/>
   </g>
   <g id="patch_9">
    <path d="M 427.029784 83.59632 
Q 431.457643 83.59632 434.320255 83.59632 
" clip-path="url(#pc8e80f72fa)" style="fill: none; stroke: #8794a3; stroke-width: 1.4; stroke-linecap: round"/>
    <path d="M 429.520255 81.19632 
L 434.320255 83.59632 
L 429.520255 85.99632 
z
" clip-path="url(#pc8e80f72fa)" style="fill: #8794a3; stroke: #8794a3; stroke-width: 1.4; stroke-linecap: round"/>
   </g>
   <g id="patch_10">
    <path d="M 444.31488 114.731424 
L 524.1312 114.731424 
Q 534.8448 114.731424 534.8448 113.289984 
L 534.8448 53.902656 
Q 534.8448 52.461216 524.1312 52.461216 
L 444.31488 52.461216 
Q 433.60128 52.461216 433.60128 53.902656 
L 433.60128 113.289984 
Q 433.60128 114.731424 444.31488 114.731424 
z
" clip-path="url(#pc8e80f72fa)" style="fill: #eef2f7; stroke: #c4d0de; stroke-linejoin: miter"/>
   </g>
   <g id="text_1">
    <text style="font-weight: 700; font-size: 13px; font-family: 'Helvetica', 'Arial', 'DejaVu Sans', sans-serif; text-anchor: start; fill: #1a1a1a" x="7.2" y="18.73152" transform="rotate(-0 7.2 18.73152)">Research design pipeline</text>
   </g>
   <g id="text_2">
    <text style="font-weight: 700; font-size: 11.5px; font-family: 'Helvetica', 'Arial', 'DejaVu Sans', sans-serif; text-anchor: middle; fill: #1a1a1a" x="62.1072" y="79.459822" transform="rotate(-0 62.1072 79.459822)">6 configs</text>
   </g>
   <g id="text_3">
    <text style="font-size: 8.6px; font-family: 'Helvetica', 'Arial', 'DejaVu Sans', sans-serif; text-anchor: middle; fill: #5a6573" x="62.1072" y="98.077479" transform="rotate(-0 62.1072 98.077479)">harness × model</text>
   </g>
   <g id="text_4">
    <text style="font-weight: 700; font-size: 11.5px; font-family: 'Helvetica', 'Arial', 'DejaVu Sans', sans-serif; text-anchor: middle; fill: #1a1a1a" x="167.63616" y="79.504744" transform="rotate(-0 167.63616 79.504744)">20 tasks</text>
   </g>
   <g id="text_5">
    <text style="font-size: 8.6px; font-family: 'Helvetica', 'Arial', 'DejaVu Sans', sans-serif; text-anchor: middle; fill: #5a6573" x="167.63616" y="98.077479" transform="rotate(-0 167.63616 98.077479)">5 cats × 4</text>
   </g>
   <g id="text_6">
    <text style="font-weight: 700; font-size: 11.5px; font-family: 'Helvetica', 'Arial', 'DejaVu Sans', sans-serif; text-anchor: middle; fill: #1a1a1a" x="273.16512" y="79.504744" transform="rotate(-0 273.16512 79.504744)">360 traces</text>
   </g>
   <g id="text_7">
    <text style="font-size: 8.6px; font-family: 'Helvetica', 'Arial', 'DejaVu Sans', sans-serif; text-anchor: middle; fill: #5a6573" x="273.16512" y="98.077479" transform="rotate(-0 273.16512 98.077479)">3 formal repeats</text>
   </g>
   <g id="text_8">
    <text style="font-weight: 700; font-size: 11.5px; font-family: 'Helvetica', 'Arial', 'DejaVu Sans', sans-serif; text-anchor: middle; fill: #1a1a1a" x="378.69408" y="79.504744" transform="rotate(-0 378.69408 79.504744)">M1–M4</text>
   </g>
   <g id="text_9">
    <text style="font-size: 8.6px; font-family: 'Helvetica', 'Arial', 'DejaVu Sans', sans-serif; text-anchor: middle; fill: #5a6573" x="378.69408" y="98.077479" transform="rotate(-0 378.69408 98.077479)">white-box attribution</text>
   </g>
   <g id="text_10">
    <text style="font-weight: 700; font-size: 11.5px; font-family: 'Helvetica', 'Arial', 'DejaVu Sans', sans-serif; text-anchor: middle; fill: #1a1a1a" x="484.22304" y="79.459822" transform="rotate(-0 484.22304 79.459822)">Agent cards</text>
   </g>
   <g id="text_11">
    <text style="font-size: 8.6px; font-family: 'Helvetica', 'Arial', 'DejaVu Sans', sans-serif; text-anchor: middle; fill: #5a6573" x="484.22304" y="98.077479" transform="rotate(-0 484.22304 98.077479)">governance proxies</text>
   </g>
  </g>
 </g>
 <defs>
  <clipPath id="pc8e80f72fa">
   <rect x="7.2" y="7.2" width="535.68" height="144.144"/>
  </clipPath>
 </defs>
</svg>
