<?xml version="1.0" encoding="utf-8" standalone="no"?>
<!DOCTYPE svg PUBLIC "-//W3C//DTD SVG 1.1//EN"
  "http://www.w3.org/Graphics/SVG/1.1/DTD/svg11.dtd">
<svg xmlns:xlink="http://www.w3.org/1999/xlink" width="550.08pt" height="247.248pt" viewBox="0 0 550.08 247.248" xmlns="http://www.w3.org/2000/svg" version="1.1">
 <metadata>
  <rdf:RDF xmlns:dc="http://purl.org/dc/elements/1.1/" xmlns:cc="http://creativecommons.org/ns#" xmlns:rdf="http://www.w3.org/1999/02/22-rdf-syntax-ns#">
   <cc:Work>
    <dc:type rdf:resource="http://purl.org/dc/dcmitype/StillImage"/>
    <dc:format>image/svg+xml</dc:format>
    <dc:creator>
     <cc:Agent>
      <dc:title>Matplotlib v3.10.9, https://matplotlib.org/</dc:title>
     </cc:Agent>
    </dc:creator>
   </cc:Work>
  </rdf:RDF>
 </metadata>
 <defs>
  <style type="text/css">*{stroke-linejoin: round; stroke-linecap: butt}</style>
 </defs>
 <g id="figure_1">
  <g id="patch_1">
   <path d="M 0 247.248
L 550.08 247.248
L 550.08 0
L 0 0
z
" style="fill: #ffffff"/>
  </g>
  <g id="axes_1">
   <g id="patch_2">
    <path d="M 24.34176 218.625984
L 343.60704 218.625984
Q 354.32064 218.625984 354.32064 213.969024
L 354.32064 47.249856
Q 354.32064 42.592896 343.60704 42.592896
L 24.34176 42.592896
Q 13.62816 42.592896 13.62816 47.249856
L 13.62816 213.969024
Q 13.62816 218.625984 24.34176 218.625984
z
" clip-path="url(#pbf4bdb95d9)" style="fill: #f4f7fa; stroke: #9fb2c8; stroke-width: 1.2; stroke-linejoin: miter"/>
   </g>
   <g id="patch_3">
    <path d="M 38.26944 136.663488
L 329.67936 136.663488
Q 340.39296 136.663488 340.39296 134.335008
L 340.39296 87.299712
Q 340.39296 84.971232 329.67936 84.971232
L 38.26944 84.971232
Q 27.55584 84.971232 27.55584 87.299712
L 27.55584 134.335008
Q 27.55584 136.663488 38.26944 136.663488
z
" clip-path="url(#pbf4bdb95d9)" style="fill: #eef2f7; stroke: #c4d0de; stroke-linejoin: miter"/>
   </g>
   <g id="patch_4">
    <path d="M 38.26944 206.517888
L 329.67936 206.517888
Q 340.39296 206.517888 340.39296 204.189408
L 340.39296 154.825632
Q 340.39296 152.497152 329.67936 152.497152
L 38.26944 152.497152
Q 27.55584 152.497152 27.55584 154.825632
L 27.55584 204.189408
Q 27.55584 206.517888 38.26944 206.517888
z
" clip-path="url(#pbf4bdb95d9)" style="fill: #eef3ee; stroke: #bcd0c2; stroke-linejoin: miter"/>
   </g>
   <g id="patch_5">
    <path d="M 399.31776 165.070944
L 525.73824 165.070944
Q 536.45184 165.070944 536.45184 160.413984
L 536.45184 91.490976
Q 536.45184 86.834016 525.73824 86.834016
L 399.31776 86.834016
Q 388.60416 86.834016 388.60416 91.490976
L 388.60416 160.413984
Q 388.60416 165.070944 399.31776 165.070944
z
" clip-path="url(#pbf4bdb95d9)" style="fill: #fbf0ee; stroke: #e0b4ad; stroke-width: 1.2; stroke-linejoin: miter"/>
   </g>
   <g id="line2d_1">
    <path d="M 371.4624 212.10624
L 371.4624 49.11264
" clip-path="url(#pbf4bdb95d9)" style="fill: none; stroke-dasharray: 7,5.6; stroke-dashoffset: 0; stroke: #c0392b; stroke-width: 1.4"/>
   </g>
   <g id="text_1">
    <text style="font-weight: 700; font-size: 13px; font-family: 'Helvetica', 'Arial', 'DejaVu Sans', sans-serif; text-anchor: start; fill: #1a1a1a" x="7.2" y="18.8424" transform="rotate(-0 7.2 18.8424)">Isolation: clean per-run environment, production untouched</text>
   </g>
   <g id="text_2">
    <text style="font-weight: 700; font-size: 11px; font-family: 'Helvetica', 'Arial', 'DejaVu Sans', sans-serif; text-anchor: start; fill: #1a1a1a" x="33.984" y="57.26232" transform="rotate(-0 33.984 57.26232)">Execution root  /data/harness-lab</text>
   </g>
   <g id="text_3">
    <text style="font-size: 8.4px; font-family: 'Helvetica', 'Arial', 'DejaVu Sans', sans-serif; text-anchor: start; fill: #5a6573" x="33.984" y="68.90472" transform="rotate(-0 33.984 68.90472)">all 4 harnesses installed, versions pinned</text>
   </g>
   <g id="text_4">
    <text style="font-weight: 700; font-size: 10px; font-family: 'Helvetica', 'Arial', 'DejaVu Sans', sans-serif; text-anchor: start; fill: #1a1a1a" x="44.6976" y="99.17496" transform="rotate(-0 44.6976 99.17496)">Per-run fresh HOME</text>
   </g>
   <g id="text_5">
    <text style="font-size: 8.2px; font-family: 'Helvetica', 'Arial', 'DejaVu Sans', sans-serif; text-anchor: start; fill: #5a6573" x="44.6976" y="110.81736" transform="rotate(-0 44.6976 110.81736)">runs/&lt;config&gt;/&lt;task&gt;/&lt;repeat&gt;/home — reset every run;</text>
   </g>
   <g id="text_6">
    <text style="font-size: 8.2px; font-family: 'Helvetica', 'Arial', 'DejaVu Sans', sans-serif; text-anchor: start; fill: #5a6573" x="44.6976" y="121.528368" transform="rotate(-0 44.6976 121.528368)">no shared session / memory / log / cache</text>
   </g>
   <g id="text_7">
    <text style="font-weight: 700; font-size: 10px; font-family: 'Helvetica', 'Arial', 'DejaVu Sans', sans-serif; text-anchor: start; fill: #1a1a1a" x="44.6976" y="164.3724" transform="rotate(-0 44.6976 164.3724)">Hermes: independent HERMES_HOME</text>
   </g>
   <g id="text_8">
    <text style="font-size: 8.2px; font-family: 'Helvetica', 'Arial', 'DejaVu Sans', sans-serif; text-anchor: start; fill: #5a6573" x="44.6976" y="176.0148" transform="rotate(-0 44.6976 176.0148)">clean instance, same v0.13.0 as production,</text>
   </g>
   <g id="text_9">
    <text style="font-size: 8.2px; font-family: 'Helvetica', 'Arial', 'DejaVu Sans', sans-serif; text-anchor: start; fill: #5a6573" x="44.6976" y="186.725808" transform="rotate(-0 44.6976 186.725808)">but separate state — never writes production dir</text>
   </g>
   <g id="text_10">
    <text style="font-size: 8px; font-family: 'Helvetica', 'Arial', 'DejaVu Sans', sans-serif; text-anchor: start; fill: #c0392b" x="376.8192" y="42.1272" transform="rotate(-0 376.8192 42.1272)">no-touch barrier</text>
   </g>
   <g id="text_11">
    <text style="font-weight: 700; font-size: 10px; font-family: 'Helvetica', 'Arial', 'DejaVu Sans', sans-serif; text-anchor: start; fill: #1a1a1a" x="406.2816" y="103.83192" transform="rotate(-0 406.2816 103.83192)">Production Hermes</text>
   </g>
   <g id="text_12">
    <text style="font-size: 8.2px; font-family: 'Helvetica', 'Arial', 'DejaVu Sans', sans-serif; text-anchor: start; fill: #5a6573" x="406.2816" y="117.8028" transform="rotate(-0 406.2816 117.8028)">/home/opc/.hermes</text>
   </g>
   <g id="text_13">
    <text style="font-size: 8.2px; font-family: 'Helvetica', 'Arial', 'DejaVu Sans', sans-serif; text-anchor: start; fill: #5a6573" x="406.2816" y="129.4452" transform="rotate(-0 406.2816 129.4452)">(production Discord bot)</text>
   </g>
   <g id="text_14">
    <text style="font-size: 8.2px; font-family: 'Helvetica', 'Arial', 'DejaVu Sans', sans-serif; text-anchor: start; fill: #5a6573" x="406.2816" y="141.0876" transform="rotate(-0 406.2816 141.0876)">config frozen,</text>
   </g>
   <g id="text_15">
    <text style="font-size: 8.2px; font-family: 'Helvetica', 'Arial', 'DejaVu Sans', sans-serif; text-anchor: start; fill: #5a6573" x="406.2816" y="152.73" transform="rotate(-0 406.2816 152.73)">service undisturbed</text>
   </g>
  </g>
 </g>
 <defs>
  <clipPath id="pbf4bdb95d9">
   <rect x="7.2" y="7.2" width="535.68" height="232.848"/>
  </clipPath>
 </defs>
</svg>
